<svg width="20" height="20" viewBox="0 0 20 20" fill="none" xmlns="http://www.w3.org/2000/svg">
<mask id="mask0_6_2196" style="mask-type:alpha" maskUnits="userSpaceOnUse" x="0" y="0" width="20" height="20">
<rect width="20" height="20" fill="#D9D9D9"/>
</mask>
<g mask="url(#mask0_6_2196)">
<path d="M9.99999 17.4999L8.79166 16.4166C7.38888 15.1527 6.22916 14.0624 5.31249 13.1458C4.39582 12.2291 3.66666 11.4062 3.12499 10.677C2.58332 9.94784 2.20485 9.2777 1.98957 8.66658C1.7743 8.05547 1.66666 7.43047 1.66666 6.79158C1.66666 5.48603 2.10416 4.39575 2.97916 3.52075C3.85416 2.64575 4.94443 2.20825 6.24999 2.20825C6.97221 2.20825 7.65971 2.36103 8.31249 2.66659C8.96527 2.97214 9.52777 3.4027 9.99999 3.95825C10.4722 3.4027 11.0347 2.97214 11.6875 2.66659C12.3403 2.36103 13.0278 2.20825 13.75 2.20825C15.0555 2.20825 16.1458 2.64575 17.0208 3.52075C17.8958 4.39575 18.3333 5.48603 18.3333 6.79158C18.3333 7.43047 18.2257 8.05547 18.0104 8.66658C17.7951 9.2777 17.4167 9.94784 16.875 10.677C16.3333 11.4062 15.6042 12.2291 14.6875 13.1458C13.7708 14.0624 12.6111 15.1527 11.2083 16.4166L9.99999 17.4999Z" fill="#F34040"/>
</g>
</svg>
